<?xml version="1.0" encoding="utf-8"?>
<!-- Generator: Adobe Illustrator 23.0.2, SVG Export Plug-In . SVG Version: 6.00 Build 0)  -->
<svg version="1.1" xmlns="http://www.w3.org/2000/svg" xmlns:xlink="http://www.w3.org/1999/xlink" x="0px" y="0px"
	 viewBox="0 0 1100 900" style="enable-background:new 0 0 1100 900;" xml:space="preserve">
<style type="text/css">
	.st0{display:none;}
	.st1{display:inline;fill:#B1BECD;}
	.st2{display:inline;fill:none;}
	.st3{display:inline;}
	.st4{fill:#8E9093;}
	.st5{fill:#FFFFFF;}
	.st6{opacity:0.75;fill:#4E5766;}
	.st7{display:none;opacity:0.75;fill:#4E5766;}
	.st8{fill:#F6F6F8;}
	.st9{opacity:0.75;fill:#ED7161;}
	.st10{opacity:0.75;}
	.st11{fill-rule:evenodd;clip-rule:evenodd;fill:#F1B833;}
	.st12{fill-rule:evenodd;clip-rule:evenodd;fill:#6D6E71;}
	.st13{fill:#7F9EBD;}
	.st14{fill:#C9C8CE;}
	.st15{fill:#E9E6E6;}
	.st16{fill:#ADD0EC;}
</style>
<g id="Layer_1" class="st0">
	<path class="st1" d="M1540,450c0,546.76-443.24,990-990,990s-990-443.24-990-990S3.24-540,550-540S1540-96.76,1540,450"/>
	<rect x="-440" y="-540" class="st2" width="1980" height="1980"/>
</g>
<g id="Layer_2" class="st0">
	<g class="st3">
		<g>
			<g>
				<path class="st4" d="M916.52-37.21l-542.83-5.57c-19.02,0-34.61,10.53-47.42,24.59c-11.36,12.47-22.05,29.9-22.15,51.4
					l-3,160.71v582.1c-10.83,46.01,71.48,84.78,71.48,84.78l528.29,9.18c46.75,0.81,85.44-36.02,86.23-82.06l10-582.37l2.76-160.78
					C1000.66-1.33,963.27-36.42,916.52-37.21z"/>
				<path class="st5" d="M916.97-7.21l-169.22-3l-191.3-3H384.92c-23.81,0-44.85,16.36-49.78,39.65c-0.59,2.79-0.95,5.69-1.03,8.7
					l-3,170.51l-9.59,570.95c-0.04,2.66,0.12,5.33,0.48,7.97c0.58,4.27,1.68,8.45,3.28,12.45c1.58,3.92,3.62,7.63,6.07,11.05
					c0.49,0.68,0.99,1.35,1.52,1.97c9.13,11.53,22.6,18.65,37.14,19.64c0.88,0.02,1.77,0.1,2.67,0.12l529.51,9.15
					c2.65,0.05,5.3-0.11,7.93-0.47c17.83-2.44,33.16-14.03,40.55-30.67c0.69-1.58,1.3-3.19,1.84-4.83c1.64-5,2.52-10.23,2.6-15.5
					l10-570.95l1.74-175.2c0.21-21.67-14.18-40.92-35.14-46.43C927.09-6.32,922.15-7.11,916.97-7.21z"/>
			</g>
			<path class="st6" d="M890.74,171.79l-220.05-3.13c-6.97-0.11-12.73,4.51-12.87,10.33v0l-0.17,8.1
				c-0.1,5.82,5.46,10.6,12.43,10.69l220.06,3.13c6.97,0.11,12.72-4.51,12.86-10.33l0.17-8.1
				C903.27,176.66,897.7,171.88,890.74,171.79z"/>
			<path class="st6" d="M892.51,275.79l-467.29-6.77c-7-0.11-12.78,4.61-12.91,10.56l-0.17,8.28c-0.1,5.95,5.49,10.84,12.49,10.93
				l467.29,6.77c7,0.11,12.78-4.61,12.91-10.56l0.17-8.24c0.12-5.95-5.46-10.87-12.46-10.97
				C892.53,275.79,892.52,275.79,892.51,275.79z"/>
			<path class="st6" d="M890.74,380.79l-467.29-6.77c-7-0.12-12.79,4.61-12.92,10.56c0,0,0,0,0,0l-0.17,8.28
				c-0.1,5.95,5.49,10.84,12.48,10.93l467.29,6.77c6.99,0.12,12.77-4.6,12.91-10.54c0-0.01,0-0.02,0-0.02l0.17-8.28
				C903.31,385.77,897.73,380.88,890.74,380.79z"/>
			<path class="st6" d="M888.54,485.79l-466.47-6.76c-6.98-0.11-12.75,4.61-12.89,10.54l-0.17,8.27
				c-0.12,5.94,5.45,10.85,12.44,10.95c0.01,0,0.02,0,0.03,0l466.47,6.76c6.98,0.11,12.75-4.61,12.89-10.54l0.17-8.31
				C901.1,490.76,895.52,485.88,888.54,485.79z"/>
			<path class="st6" d="M887.17,589.79l-467.29-6.77c-7-0.12-12.79,4.61-12.92,10.56v0l-0.17,8.28c-0.1,5.95,5.49,10.84,12.48,10.93
				l467.29,6.77c7,0.12,12.79-4.61,12.92-10.56l0,0l0.17-8.28C899.76,594.77,894.17,589.88,887.17,589.79z"/>
			<path class="st6" d="M885.38,694.79l-467.29-6.77c-7-0.11-12.78,4.61-12.91,10.56l-0.17,8.28c-0.1,5.95,5.49,10.84,12.49,10.93
				l467.29,6.77c7,0.11,12.78-4.61,12.91-10.56l0.17-8.27C897.97,699.77,892.38,694.88,885.38,694.79z"/>
			<path class="st7" d="M883.6,714.79l-467.29-6.77c-7-0.12-12.79,4.61-12.92,10.56v0l-0.17,8.28c-0.1,5.95,5.49,10.84,12.48,10.93
				l467.29,6.77c7,0.12,12.79-4.61,12.92-10.56l0,0l0.17-8.28C896.19,719.77,890.6,714.88,883.6,714.79z"/>
		</g>
		<g>
			<path class="st4" d="M827.11,228.38c-2.49-6.47-6.26-10.16-9.85-13.72l-1.51-1.49L684.49,81.94L611.9,9.33
				c-1.08-1.07-2.23-2.08-3.44-3.02c-4.53-3.79-9.95-6.36-15.75-7.46c-1.79-0.39-3.6-0.66-5.42-0.8c-2.48-0.25-5.19-0.36-8.27-0.36
				c-1.58,0-3.3,0-5.13,0.1l-387.13,0c-47.77,0-86.53,38.64-86.64,86.39l0,772.22c0.11,47.74,38.87,86.39,86.64,86.39l556.72,0
				c47.77,0,86.53-38.64,86.64-86.39l0-605.18C830.08,240.48,829.22,233.85,827.11,228.38z"/>
			<path class="st5" d="M186.73,916.79c-33.41,0.01-60.53-27.01-60.62-60.41l0-772.23c0.1-33.37,27.19-60.37,60.56-60.36l374.53,0
				c3.26,0,5.91,2.64,5.91,5.91l0,160.08c0,31.84,13.9,69.01,53.12,69.01l177.98,0c3.26,0,5.91,2.64,5.91,5.91l0,591.69
				c-0.09,33.39-27.2,60.41-60.61,60.41L186.73,916.79z"/>
			<path class="st4" d="M561.11,28.79l0,161.04c0,39.74,19.35,74.96,59.17,74.96l177.83,0l0,591.52
				c-0.08,30.13-24.55,54.5-54.69,54.48l-556.62,0c-30.14,0.02-54.61-24.36-54.7-54.48l0-772.05c0.1-30.12,24.56-54.48,54.7-54.46
				l374.3,0 M561.3,17.79l-374.74,0c-36.63-0.01-66.36,29.66-66.45,66.32l0,772.37c0.09,36.66,29.82,66.33,66.45,66.32l556.1,0
				c36.63,0.01,66.35-29.66,66.44-66.32l0-591.87c0-6.52-5.29-11.81-11.81-11.81l-177.09,0c-14.73,0-26.4-5.9-34.69-17.6
				c-8-11.27-12.41-27.43-12.41-45.51l0-160.08C573.11,23.07,567.83,17.79,561.3,17.79z"/>
			<path class="st8" d="M628.28,241.84c-14.59,0-25.92-5.39-33.67-16.01c-7.42-10.17-11.5-25.33-11.5-42.71l0-153.44
				c0-3.81,3.08-6.89,6.89-6.89h0.74c0.27-0.01,0.54-0.01,0.82,0h0.06c0.73,0.08,1.39,0.17,1.96,0.28l0.41,0.09
				c1.9,0.47,3.68,1.34,5.21,2.57c0.1,0.07,0.18,0.15,0.27,0.22c0.98,0.91,2.17,2.05,2.85,2.74L797.13,224.4
				c2.56,2.56,4,6.05,3.99,9.68v0.81c0,3.81-3.08,6.9-6.88,6.9L628.28,241.84z"/>
			<path class="st4" d="M590.11,29.79h-0.09c0.6,0.07,1.08,0.14,1.47,0.21c0.94,0.23,1.82,0.66,2.57,1.27
				c0.84,0.74,1.83,1.73,2.54,2.43l195.53,195.48c1.27,1.27,1.98,3,1.97,4.8v0.81l-166.56,0c-12.49,0-21.69-4.31-28.22-13.17
				c-6.53-8.87-10.22-22.66-10.22-38.57l0-153.26H590.11 M590.64,16.79h-0.75c-7.61,0-13.78,6.17-13.78,13.78l0,152.85
				c0,18.76,4.56,35.31,12.84,46.61c9.13,12.45,22.33,18.76,39.26,18.76l166.13,0c7.6,0,13.77-6.16,13.77-13.76l0,0v-0.81
				c0.01-5.44-2.15-10.66-6.01-14.5L607.14,24.73c-0.82-0.81-1.97-1.97-3.18-3.03l-0.53-0.44c-2.31-1.84-5-3.16-7.87-3.86
				c-0.27-0.07-0.54-0.13-0.81-0.18c-0.75-0.13-1.55-0.25-2.45-0.34c-0.54-0.06-1.08-0.09-1.62-0.09H590.64z"/>
		</g>
		<g>
			<path class="st6" d="M223.37,198.79l230.5,0c7.32,0,13.25,5.01,13.25,11.18c0,0,0,0.01,0,0.01v8.62
				c0.01,6.18-5.92,11.19-13.24,11.19c0,0-0.01,0-0.01,0l-230.5,0c-7.32,0-13.25-5.01-13.25-11.19l0-8.62
				C210.11,203.8,216.05,198.79,223.37,198.79z"/>
			<path class="st9" d="M220.39,308.79l488.44,0c7.33,0,13.28,5.01,13.28,11.19v8.62c0,6.18-5.94,11.19-13.28,11.19l-488.44,0
				c-7.33,0-13.28-5.01-13.28-11.19l0-8.62C207.11,313.8,213.06,308.79,220.39,308.79z"/>
			<path class="st9" d="M220.39,419.79l488.44,0c7.33,0,13.27,5.01,13.28,11.19v8.62c0,6.18-5.94,11.19-13.28,11.19l-488.44,0
				c-7.33,0-13.28-5.01-13.28-11.19l0-8.62C207.12,424.8,213.06,419.79,220.39,419.79z"/>
			<path class="st6" d="M220.39,529.79l488.44,0c7.33,0,13.28,5.01,13.28,11.19v8.62c0,6.18-5.94,11.19-13.28,11.19l-488.44,0
				c-7.33,0-13.28-5.01-13.28-11.19l0-8.62C207.11,534.8,213.06,529.79,220.39,529.79z"/>
			<path class="st6" d="M220.39,639.79l488.44,0c7.33,0,13.28,5.01,13.28,11.19v8.62c0,6.18-5.94,11.19-13.28,11.19l-488.44,0
				c-7.33,0-13.28-5.01-13.28-11.19l0-8.62C207.11,644.8,213.06,639.79,220.39,639.79z"/>
			<path class="st6" d="M220.39,750.79l488.44,0c7.33,0,13.28,5.01,13.28,11.19v8.62c0,6.18-5.94,11.19-13.28,11.19l-488.44,0
				c-7.33,0-13.28-5.01-13.28-11.19l0-8.62C207.11,755.8,213.06,750.79,220.39,750.79z"/>
		</g>
		<g>
			<path class="st5" d="M865.23,784c-0.01-0.11-0.02-0.22-0.02-0.32c-0.24-4.05-1.38-8.07-3.45-11.78l-26.88-48.47L774.52,614.6
				c-4.83-8.72-13.67-14.01-23.63-14.18c-5.94-0.1-11.54,1.64-16.17,4.87c-3.14,2.18-5.84,5.04-7.89,8.49l-62.63,104.3l-29.96,49.9
				c-2,3.32-3.23,6.91-3.72,10.57c-0.13,0.95-0.21,1.91-0.23,2.87c0,0.08-0.01,0.17-0.01,0.25c-0.08,4.73,1.08,9.49,3.5,13.85
				c4.83,8.69,13.63,13.98,23.59,14.15l179.84,3.09c9.96,0.17,18.97-4.82,24.1-13.33C864.16,794.65,865.48,789.3,865.23,784z"/>
			<g class="st10">
				<path class="st11" d="M862.11,771.78l-87.5-157.77c-4.85-8.74-13.71-14.06-23.7-14.23c-9.99-0.17-19.03,4.83-24.14,13.4
					l-92.88,154.67c-5.14,8.54-5.32,18.89-0.47,27.63c4.85,8.71,13.68,14.02,23.67,14.19l180.38,3.1
					c9.99,0.17,19.03-4.83,24.17-13.37C866.77,790.84,866.95,780.49,862.11,771.78z"/>
				<path class="st12" d="M741.74,735.26c2.34,5.36,11.16,5.55,13.72,0.24c4.24-9.04,7.02-55.58,7.27-70.17
					c0.08-4.77-1.09-8.49-3.54-11.19c-4.81-5.34-13.4-5.49-18.42-0.32c-2.51,2.62-3.81,6.29-3.89,11.06
					C736.63,679.47,737.78,726.04,741.74,735.26L741.74,735.26z M837.73,797.63l-90.19-2.01h-90.19c-4.35-1.45-8.04-3.69-10.15-7.49
					c-2.11-3.8-2.03-8.11,0.2-11.84l46.45-77.32l46.42-77.35c2.24-3.72,6-5.8,10.35-5.73c4.35,0.07,8.04,2.28,10.15,6.08l43.77,78.9
					l43.74,78.87c2.11,3.8,2.03,8.11-0.2,11.84c-2.24,3.72-6,5.83-10.35,5.76V797.63z M657.08,809.68l180.38,3.1
					c9.99,0.17,19.03-4.83,24.17-13.37c5.14-8.57,5.32-18.92,0.47-27.63l-87.5-157.77c-4.85-8.74-13.71-14.06-23.7-14.23
					c-9.99-0.17-19.03,4.83-24.14,13.4l-92.87,154.67c-5.14,8.54-5.32,18.89-0.47,27.63C638.26,804.2,647.09,809.51,657.08,809.68
					L657.08,809.68z M762.66,767.38c0.14-8.08-6.3-14.74-14.37-14.88c-8.08-0.14-14.71,6.3-14.85,14.38
					c-0.14,8.07,6.27,14.74,14.34,14.88C755.86,781.89,762.52,775.45,762.66,767.38L762.66,767.38z"/>
			</g>
		</g>
	</g>
</g>
<g id="Layer_3">
	<g>
		<path class="st13" d="M1018,129.39l-6.56,638.88c0,24.95-19.7,45.18-44,45.18H140.26c-24.3,0-47.28-20.23-47.28-45.18
			l-9.85-566.73c0-24.95,19.7-45.18,44-45.18h519.81c23.83,0,43.15-6.44,43.15-30.91v-0.01c0-22.62,17.86-40.95,39.88-40.95h244.3
			C998.43,84.5,1018,104.6,1018,129.39z"/>
		<path class="st14" d="M961.28,197.44l-18.57,546.61c-0.72,21.34-18.28,38.6-39.18,38.6H203.03c-20.9,0-38.45-17.26-39.18-38.6
			l-18.57-546.61H961.28z"/>
		<path class="st15" d="M977.28,215.92l-19.3,546.61c-0.75,21.34-1.21,38.6-40.71,38.6H189.29c-21.72,0-39.96-17.26-40.71-38.6
			l-19.3-546.61H977.28z"/>
		<path class="st5" d="M991.28,234.4l-30.82,534.16c-1.17,20.29-2.12,36.67-41.63,36.67h-731.1c-21.81,0-40.46-16.38-41.63-36.67
			L115.28,234.4H991.28z"/>
		<path class="st16" d="M967.34,815.5H139.23c-24.33,0-46.66-15.76-49.92-35.46L38.65,304.71c-4.52-27.3,12.18-49.78,41.42-49.78
			h939.87c29.24,0,45.93,22.47,41.42,49.78l-44.09,475.33C1014,799.74,991.67,815.5,967.34,815.5z"/>
	</g>
</g>
</svg>
