<?xml version="1.0" encoding="utf-8"?>
<!-- Generator: Adobe Illustrator 23.0.1, SVG Export Plug-In . SVG Version: 6.00 Build 0)  -->
<svg version="1.1" id="Layer_1" xmlns="http://www.w3.org/2000/svg" xmlns:xlink="http://www.w3.org/1999/xlink" x="0px" y="0px"
	 viewBox="0 0 449 512" style="enable-background:new 0 0 449 512;" xml:space="preserve">
<style type="text/css">
	.st0{fill:#FFFFFF;}
	.st1{fill:#5A6678;}
	.st2{fill:#D7644E;}
</style>
<g>
	<path class="st0" d="M240.05,408.12H63c-25.16,0-45.75-20.59-45.75-45.75v-74.15c0-25.16,20.59-45.75,45.75-45.75h177.06
		c25.16,0,45.75,20.59,45.75,45.75v74.15C285.8,387.53,265.22,408.12,240.05,408.12z"/>
	<path class="st0" d="M422.84,98.18v358.47c0,14.88-9.92,29.31-24.8,29.31h-297.6c-14.88,0-29.31-14.43-29.31-29.31v-56.36h-5.64
		V236.84h5.64v-186c0-14.88,14.43-24.8,29.31-24.8h250.25v29.31c0,24.8,18.04,42.84,42.84,42.84H422.84z"/>
	<path class="st1" d="M440.87,89.16v367.49c0,24.8-18.04,47.35-42.84,47.35h-297.6c-24.8,0-47.35-22.55-47.35-47.35v-56.36h18.04
		v56.36c0,14.88,14.43,29.31,29.31,29.31h297.6c14.88,0,24.8-14.43,24.8-29.31V98.18h-29.31c-24.8,0-42.84-18.04-42.84-42.84V26.04
		H100.44c-14.88,0-29.31,9.92-29.31,24.8v186H53.09v-186C53.09,26.04,75.64,8,100.44,8h259.27c2.25,0,4.51,0.9,6.31,2.71
		l72.15,72.15C439.97,84.65,440.87,86.91,440.87,89.16z"/>
	<path class="st2" d="M274.04,368.73c0,14.88-12.17,27.05-27.05,27.05H53.09c-14.88,0-27.05-12.17-27.05-27.05v-90.18
		c0-14.88,12.17-27.05,27.05-27.05h193.89c14.88,0,27.05,12.17,27.05,27.05V368.73z M292.07,278.55c0-24.8-20.29-45.09-45.09-45.09
		H53.09C28.29,233.45,8,253.75,8,278.55v90.18c0,24.8,20.29,45.09,45.09,45.09h193.89c24.8,0,45.09-20.29,45.09-45.09V278.55z"/>
	<path class="st2" d="M89.61,325.89c7.21,0,10.82-4.51,10.82-13.53c0-9.02-3.61-12.17-10.82-12.17H77.89v25.7H89.61z M80.15,337.16
		v22.55H62.11v-72.15h27.96c16.68,0,25.25,7.67,25.25,24.35c0,16.68-8.57,25.25-25.25,25.25H80.15z"/>
	<path class="st2" d="M149.59,301.09h-10.82v45.09h10.82c13.98,0,15.33-8.12,15.33-23.9C164.92,306.5,163.56,301.09,149.59,301.09z
		 M125.69,358.81v-71.24h23.9c24.8,0,30.21,10.37,30.21,34.27c0,24.35-4.51,36.97-30.21,36.97L125.69,358.81L125.69,358.81z"/>
	<g>
		<polygon class="st2" points="192.87,287.56 237.96,287.56 237.96,301.09 206.4,301.09 206.4,319.13 233.45,319.13 233.45,332.65 
			206.4,332.65 206.4,359.71 192.87,359.71 		"/>
	</g>
</g>
</svg>
